<svg width="44" height="39" viewBox="0 0 44 39" fill="none" xmlns="http://www.w3.org/2000/svg">
<path d="M22.4877 20.5052C22.4877 20.5052 24.8105 16.8029 29.7453 15.965C29.7453 15.965 22.5846 13.3112 15.0848 15.965C15.0848 15.965 19.1489 16.3847 22.4877 20.5052Z" fill="#55BB33"/>
<path d="M22.567 23.3497C22.567 23.3497 22.6389 23.8386 22.9781 23.9319C23.3173 24.0251 33.2353 24.9479 38.2068 15.7205C38.2068 15.7205 37.7105 15.3644 35.9692 16.5288C35.9692 16.5288 31.5512 20.7652 27.882 20.5914C27.882 20.5914 27.6824 20.053 31.9462 18.2796C31.9462 18.2796 32.9548 17.5575 32.1033 17.3102C32.1033 17.3102 27.3476 18.3375 25.204 19.7421C25.204 19.7421 23.8972 20.1844 22.567 23.3511V23.3497Z" fill="#55BB33"/>
<path d="M22.2733 23.3515C22.2733 23.3515 22.2014 23.8404 21.8622 23.9337C21.5231 24.027 11.605 24.9497 6.63354 15.7223C6.63354 15.7223 7.12981 15.3662 8.87116 16.5306C8.87116 16.5306 13.2891 20.767 16.9583 20.5932C16.9583 20.5932 17.158 20.0548 12.8942 18.2814C12.8942 18.2814 11.8855 17.5593 12.7371 17.312C12.7371 17.312 17.4927 18.3393 19.6364 19.7439C19.6364 19.7439 20.9431 20.1862 22.2733 23.3529V23.3515Z" fill="#55BB33"/>
<path d="M22.8401 14.785C22.8401 14.785 23.3554 10.16 20.8403 8.5759C18.3238 6.99325 13.179 8.10958 12.163 6.49585C12.163 6.49585 12.4214 16.4298 21.5333 14.0855C21.5333 14.0855 20.3235 10.1741 15.6794 9.27396C15.6794 9.27396 20.9416 9.57636 22.1867 14.8033L22.8401 14.7835V14.785Z" fill="#55BB33"/>
<path d="M18.9345 0C18.9345 0 19.1195 1.20394 22.3056 3.04377C25.4917 4.88359 23.5727 7.77898 22.8386 8.83455C22.8386 8.83455 23.4597 5.59013 20.507 3.42388C20.507 3.42388 22.8944 5.34143 22.3379 8.84303C22.3379 8.84303 16.5663 7.20528 18.9345 0Z" fill="#55BB33"/>
<path d="M23.1337 13.9004C23.1337 13.9004 23.7798 8.77661 29.5059 7.73659C29.5059 7.73659 25.7311 8.4191 24.2305 12.0846C24.2305 12.0846 29.8613 14.3512 32.2002 8.26508C32.2002 8.26508 32.877 5.70317 32.7816 5.31458C32.7816 5.31458 31.7494 6.32351 27.0378 6.3546C27.0378 6.3546 22.1016 6.33906 23.1337 13.9004Z" fill="#55BB33"/>
<path d="M40.8056 28.7418C40.8056 28.7418 36.8384 27.3655 33.5069 30.2863L31.4558 28.8379C31.4558 28.8379 34.6771 24.7923 42.1373 26.1686L40.807 28.7418H40.8056Z" fill="#55BB33"/>
<path d="M43.4073 22.1683L42.6614 24.7217C42.6614 24.7217 34.1896 22.5201 29.8789 27.7542L27.2595 26.7014C27.2595 26.7014 32.6641 19.9031 43.4088 22.1697L43.4073 22.1683Z" fill="#55BB33"/>
<path d="M36.1453 33.7216L39.4284 30.2751C39.4284 30.2751 36.0793 29.7649 34.8856 31.5511L36.1453 33.7216Z" fill="#55BB33"/>
<path d="M2.60467 28.7108C2.60467 28.7108 6.57188 27.3345 9.90333 30.2553L11.9545 28.8069C11.9545 28.8069 8.73314 24.7613 1.27296 26.1376L2.6032 28.7108H2.60467Z" fill="#55BB33"/>
<path d="M0.00146828 22.1358L0.747339 24.6892C0.747339 24.6892 9.21914 22.4876 13.5299 27.7217L16.1493 26.6689C16.1493 26.6689 10.7446 19.8706 0 22.1372L0.00146828 22.1358Z" fill="#55BB33"/>
<path d="M7.26343 33.6891L3.98042 30.2426C3.98042 30.2426 7.3295 29.7325 8.52319 31.5186L7.26343 33.6891Z" fill="#55BB33"/>
<path d="M16.7469 38.4766C16.7469 38.4766 21.7213 38.796 26.3639 38.413C26.3639 38.413 21.5891 33.6255 16.7469 38.4766Z" fill="#55BB33"/>
<path d="M15.0525 37.3306L12.5212 36.3132C12.5212 36.3132 20.9813 26.1051 30.6893 36.4672L28.3181 37.3927C28.3181 37.3927 21.6537 30.0532 15.0525 37.3306Z" fill="#55BB33"/>
<path d="M10.8562 35.5727C10.8562 35.5727 20.3088 23.3298 32.1649 35.4808L34.3115 34.2472C34.3115 34.2472 23.3525 18.7345 8.93283 34.2472L10.8548 35.5727H10.8562Z" fill="#55BB33"/>
</svg>
